<svg width="248" height="103" viewBox="0 0 248 103" fill="none" xmlns="http://www.w3.org/2000/svg">
<mask id="path-1-inside-1_16_35" fill="white">
<path fill-rule="evenodd" clip-rule="evenodd" d="M67 43.7477L42.5 0L0.497803 75H49.4978L67 43.7477ZM84.5023 75L67 43.7477L91.5 0L133.502 75H84.5023Z"/>
</mask>
<path d="M42.5 0L51.225 -4.88623L42.5 -20.4657L33.7751 -4.88623L42.5 0ZM0.497803 75L-8.22715 70.1138L-16.5639 85H0.497803V75ZM49.4978 75V85H55.3589L58.2228 79.8862L49.4978 75ZM84.5023 75L75.7773 79.8862L78.6412 85H84.5023V75ZM91.5 0L100.225 -4.88623L91.5 -20.4657L82.7751 -4.88623L91.5 0ZM133.502 75V85H150.564L142.227 70.1138L133.502 75ZM33.7751 4.88623L58.2751 48.6339L75.725 38.8614L51.225 -4.88623L33.7751 4.88623ZM9.22275 79.8862L51.225 4.88623L33.7751 -4.88623L-8.22715 70.1138L9.22275 79.8862ZM49.4978 65H0.497803V85H49.4978V65ZM58.2228 79.8862L75.725 48.6339L58.2751 38.8614L40.7729 70.1138L58.2228 79.8862ZM58.2751 48.6339L75.7773 79.8862L93.2272 70.1138L75.725 38.8614L58.2751 48.6339ZM75.725 48.6339L100.225 4.88623L82.7751 -4.88623L58.2751 38.8614L75.725 48.6339ZM82.7751 4.88623L124.777 79.8862L142.227 70.1138L100.225 -4.88623L82.7751 4.88623ZM133.502 65H84.5023V85H133.502V65Z" fill="#D9D9D9" fill-opacity="0.2" mask="url(#path-1-inside-1_16_35)"/>
<mask id="path-3-inside-2_16_35" fill="white">
<path fill-rule="evenodd" clip-rule="evenodd" d="M181.502 31.2523L157.002 75L115 0H164L181.502 31.2523ZM199.004 0L181.502 31.2523L206.002 75L248.004 0H199.004Z"/>
</mask>
<path d="M157.002 75L148.277 79.8862L157.002 95.4657L165.727 79.8862L157.002 75ZM115 0V-10H97.9383L106.275 4.88623L115 0ZM164 0L172.725 -4.88623L169.861 -10H164V0ZM199.004 0V-10H193.143L190.279 -4.88623L199.004 0ZM206.002 75L197.277 79.8862L206.002 95.4657L214.727 79.8862L206.002 75ZM248.004 0L256.729 4.88623L265.066 -10H248.004V0ZM165.727 79.8862L190.227 36.1386L172.777 26.3661L148.277 70.1138L165.727 79.8862ZM106.275 4.88623L148.277 79.8862L165.727 70.1138L123.725 -4.88623L106.275 4.88623ZM164 -10H115V10H164V-10ZM155.275 4.88623L172.777 36.1386L190.227 26.3661L172.725 -4.88623L155.275 4.88623ZM190.227 36.1386L207.729 4.88623L190.279 -4.88623L172.777 26.3661L190.227 36.1386ZM172.777 36.1386L197.277 79.8862L214.727 70.1138L190.227 26.3661L172.777 36.1386ZM214.727 79.8862L256.729 4.88623L239.279 -4.88623L197.277 70.1138L214.727 79.8862ZM248.004 -10H199.004V10H248.004V-10Z" fill="#D9D9D9" fill-opacity="0.2" mask="url(#path-3-inside-2_16_35)"/>
<path d="M0 98H228" stroke="#D9D9D9" stroke-opacity="0.2" stroke-width="10"/>
<line x1="238" y1="98" x2="248" y2="98" stroke="#D9D9D9" stroke-opacity="0.2" stroke-width="10"/>
</svg>
