<svg width="148" height="148" viewBox="0 0 155 155" fill="none" xmlns="http://www.w3.org/2000/svg">
    <!-- background -->
    <rect x="0" y="0" width="100%" height="100%" fill="#F1F1FF" />
    <g transform="translate(10, 25)">
        <mask id="path-1-inside-1_16_35" fill="white">
            <path fill-rule="evenodd" clip-rule="evenodd" d="M67 43.7477L42.5 0L0.497803 75H49.4978L67 43.7477ZM84.5023 75L67 43.7477L91.5 0L133.502 75H84.5023Z"/>
        </mask>
        <!-- M -->
        <path d="M42.5 0L51.225 -4.88623L42.5 -20.4657L33.7751 -4.88623L42.5 0ZM0.497803 75L-8.22715 70.1138L-16.5639 85H0.497803V75ZM49.4978 75V85H55.3589L58.2228 79.8862L49.4978 75ZM84.5023 75L75.7773 79.8862L78.6412 85H84.5023V75ZM91.5 0L100.225 -4.88623L91.5 -20.4657L82.7751 -4.88623L91.5 0ZM133.502 75V85H150.564L142.227 70.1138L133.502 75ZM33.7751 4.88623L58.2751 48.6339L75.725 38.8614L51.225 -4.88623L33.7751 4.88623ZM9.22275 79.8862L51.225 4.88623L33.7751 -4.88623L-8.22715 70.1138L9.22275 79.8862ZM49.4978 65H0.497803V85H49.4978V65ZM58.2228 79.8862L75.725 48.6339L58.2751 38.8614L40.7729 70.1138L58.2228 79.8862ZM58.2751 48.6339L75.7773 79.8862L93.2272 70.1138L75.725 38.8614L58.2751 48.6339ZM75.725 48.6339L100.225 4.88623L82.7751 -4.88623L58.2751 38.8614L75.725 48.6339ZM82.7751 4.88623L124.777 79.8862L142.227 70.1138L100.225 -4.88623L82.7751 4.88623ZM133.502 65H84.5023V85H133.502V65Z" fill="#1100FA" mask="url(#path-1-inside-1_16_35)"/>
        <mask id="path-3-inside-2_16_35" fill="white">
            <path fill-rule="evenodd" clip-rule="evenodd" d="M181.502 31.2523L157.002 75L115 0H164L181.502 31.2523ZM199.004 0L181.502 31.2523L206.002 75L248.004 0H199.004Z"/>
        </mask>
        <!-- line -->
        <line x1="0" y1="98" x2="114" y2="98" stroke="#1100FA" stroke-width="10" />
        <!-- dot -->
        <line x1="124" y1="98" x2="134" y2="98" stroke="#1100FA" stroke-width="10"/>
    </g>
</svg>
